<?xml version="1.0" encoding="UTF-8"?>
<!-- Generated by Pixelmator Pro 3.5.5 -->
<svg width="256" height="60" viewBox="0 0 256 60" xmlns="http://www.w3.org/2000/svg">
    <g id="Group">
        <g id="g1">
            <path id="Path" fill="#f97316" stroke="none" d="M 76.893211 51.850708 C 93.002434 50.868439 107.834702 45.269501 121.488251 39.375885 C 112.156685 45.564194 64.516617 69.335114 64.221931 53.225891 C 64.320168 51.261353 65.10598 49.002136 66.775841 46.644669 C 68.249245 44.385468 70.410233 42.028015 72.473 39.474121 C 75.714493 35.643265 83.769096 26.901062 86.617683 21.400345 C 87.108818 20.418076 87.501724 19.435806 87.599953 18.551773 C 87.894638 13.640427 81.706337 11.774109 72.473 9.220215 L 70.704918 10.300705 L 74.14286 13.149292 C 58.524776 15.899658 49.193214 18.74823 37.798885 22.775543 L 39.370518 26.802841 L 33.673355 32.401764 C 34.655624 32.598236 44.576546 35.937943 54.890377 28.76738 L 54.988602 28.669159 C 55.08683 28.570923 55.08683 28.570923 55.08683 28.570923 C 54.792149 28.079788 54.104561 27.490417 53.220516 26.802841 C 56.363781 26.999283 58.131866 29.651428 57.837185 32.401764 L 56.462006 32.401764 C 56.560234 31.419495 56.265553 30.535461 56.069099 29.84787 C 48.112717 35.741486 38.781155 36.527313 30.923 33.776947 L 30.923 40.751053 C 26.993921 42.126251 20.314489 46.350006 20.314489 50.377304 C 20.609169 52.341843 21.591438 53.029434 22.475483 53.61879 C 31.217682 58.628372 54.792149 51.850708 54.792149 51.850708 C 46.344631 56.172699 37.897114 59.708862 25.422293 60.199997 C 8.920163 59.905319 6.562716 48.9039 14.224419 37.411346 C 21.591438 25.820572 33.18222 15.604965 51.747112 9.023758 C 57.149597 7.059219 65.007751 4.99646 72.669456 4.800003 C 83.670876 4.800003 94.279388 8.041489 93.591789 18.649994 C 93.100655 26.802841 81.706337 38.000717 75.518036 46.153534 C 72.767685 49.787949 72.27655 52.243622 76.893211 51.850708 L 76.893211 51.850708 L 76.893211 51.850708 Z M 87.305267 14.819153 C 87.796402 15.801422 87.894638 16.881927 87.796402 18.060638 C 87.796402 16.783691 87.698174 15.703186 87.305267 14.819153 L 87.305267 14.819153 Z"/>
            <path id="path1" fill="#f97316" stroke="none" d="M 129.346405 10.890076 L 134.748886 10.890076 L 134.748886 24.54361 C 134.748886 25.624115 134.159515 26.508148 133.373718 27.392197 C 132.980804 27.78511 132.587891 28.178024 131.998535 28.472687 C 131.114487 29.062057 130.230438 29.356735 129.346405 29.454956 L 129.248169 29.454956 L 123.943924 29.454956 L 123.943924 10.79184 L 129.346405 10.890076 L 129.346405 10.890076 Z M 128.167679 14.52446 L 128.167679 26.11525 L 130.42691 26.11525 L 130.42691 14.52446 L 128.167679 14.52446 L 128.167679 14.52446 Z M 122.274063 4.898224 L 122.274063 13.738647 C 122.274063 15.015594 120.800659 15.997864 120.211296 16.587234 C 120.800659 17.078369 122.274063 18.158859 122.274063 19.337601 L 122.274063 26.11525 C 122.274063 27.293976 120.309525 29.651428 118.639664 29.749649 L 116.08577 29.749649 L 116.08577 31.321274 C 116.08577 33.384033 113.728317 35.446808 111.567329 35.446808 L 111.567329 4.898224 L 122.274063 4.898224 L 122.274063 4.898224 Z M 116.96981 8.532623 L 116.08577 8.532623 L 116.08577 26.017014 L 117.853851 26.017014 L 117.853851 17.17659 L 117.068039 17.17659 L 116.478676 17.17659 C 116.576904 17.17659 116.576904 17.17659 116.576904 17.17659 C 116.576904 17.17659 116.576904 17.17659 116.576904 17.17659 L 116.871582 16.783691 L 116.96981 16.685455 C 117.460945 16.194321 117.853851 15.408524 117.853851 14.917389 L 117.853851 8.532623 L 116.96981 8.532623 L 116.96981 8.532623 Z M 142.01767 4.898224 C 142.01767 5.880493 141.330093 8.630844 140.249603 8.630844 L 140.249603 31.124832 C 140.249603 34.07164 137.204559 35.446808 135.731155 35.446808 L 135.731155 31.419495 L 135.731155 8.72908 L 122.765205 8.72908 L 122.765205 4.99646 L 142.01767 4.99646 L 142.01767 4.898224 Z M 175.021942 31.812408 C 174.137894 33.089371 173.057404 35.348572 171.976898 35.348572 L 144.768036 35.348572 L 144.768036 31.812408 L 156.849945 31.812408 L 156.849945 28.963821 L 145.16095 28.963821 L 145.16095 25.624115 L 156.849945 25.624115 L 156.849945 23.070206 L 145.16095 23.070206 L 145.16095 4.800003 L 174.236115 4.800003 L 174.236115 19.042908 C 174.137894 20.516312 170.994629 23.070206 169.03009 23.070206 L 162.252426 23.070206 L 162.252426 25.525879 L 174.432571 25.525879 C 173.843216 26.70462 172.66449 28.865601 171.289307 28.865601 L 162.350662 28.865601 L 162.350662 31.714188 L 175.021942 31.812408 L 175.021942 31.812408 Z M 162.154205 19.632263 L 168.735413 19.632263 L 168.735413 8.237946 L 162.154205 8.237946 L 162.154205 12.167023 L 168.244278 12.167023 C 167.9496 12.461716 165.985062 15.015594 165.592148 15.310287 L 165.493927 15.310287 C 165.101013 15.506729 164.904556 15.703186 164.511658 15.703186 L 162.154205 15.703186 L 162.154205 19.632263 L 162.154205 19.632263 Z M 156.751724 15.703186 L 150.366959 15.703186 L 150.366959 19.632263 L 156.751724 19.632263 L 156.751724 15.703186 L 156.751724 15.703186 Z M 156.751724 8.336166 L 150.366959 8.336166 L 150.366959 12.265244 L 156.751724 12.265244 L 156.751724 8.336166 L 156.751724 8.336166 Z M 207.829727 31.419495 C 207.535065 32.696457 205.47229 35.348572 203.802429 35.348572 L 181.799591 35.348572 C 179.442154 35.348572 178.165192 33.187592 178.165192 31.026596 L 178.165192 4.898224 L 207.04393 4.898224 L 207.04393 18.649994 C 206.945694 20.123398 203.90065 22.873749 202.230804 22.873749 L 183.665909 22.873749 L 183.665909 31.419495 L 207.829727 31.419495 L 207.829727 31.419495 Z M 195.45314 18.846466 L 201.543213 18.846466 L 201.543213 8.72908 L 195.45314 8.72908 L 195.45314 18.846466 L 195.45314 18.846466 Z M 183.665909 18.846466 L 190.14888 18.846466 L 190.14888 8.72908 L 183.665909 8.72908 L 183.665909 18.846466 L 183.665909 18.846466 Z M 241.128677 31.419495 C 240.834 32.696457 238.771225 35.348572 237.101364 35.348572 L 215.098541 35.348572 C 212.741074 35.348572 211.464142 33.187592 211.464142 31.026596 L 211.464142 4.898224 L 240.342865 4.898224 L 240.342865 18.649994 C 240.244629 20.123398 237.1996 22.873749 235.529739 22.873749 L 216.866623 22.873749 L 216.866623 31.419495 L 241.128677 31.419495 L 241.128677 31.419495 Z M 228.752075 18.846466 L 234.940369 18.846466 L 234.940369 8.72908 L 228.752075 8.72908 L 228.752075 18.846466 L 228.752075 18.846466 Z M 216.964844 18.846466 L 223.44783 18.846466 L 223.44783 8.72908 L 216.964844 8.72908 L 216.964844 18.846466 L 216.964844 18.846466 Z"/>
            <path id="path2" fill="#f97316" stroke="none" d="M 126.203148 54.306381 L 123.158104 54.306381 L 128.560593 39.474121 L 132.293213 39.474121 L 137.499237 54.306381 L 134.257751 54.306381 L 133.079025 51.163116 L 127.28363 51.163116 L 126.203148 54.306381 Z M 128.069458 48.707443 L 132.293213 48.707443 L 130.328674 42.420929 L 130.230438 42.420929 L 128.069458 48.707443 Z"/>
            <path id="path3" fill="#f97316" stroke="none" d="M 138.87442 39.474121 L 142.01767 39.474121 L 142.01767 54.306381 L 138.87442 54.306381 L 138.87442 39.474121 Z"/>
            <path id="path4" fill="#f97316" stroke="none" d="M 144.473343 39.474121 L 147.714844 39.474121 L 147.714844 42.126251 L 144.473343 42.126251 L 144.473343 39.474121 Z M 144.571579 43.992554 L 147.714844 43.992554 L 147.714844 54.306381 L 144.571579 54.306381 L 144.571579 43.992554 Z"/>
            <path id="path5" fill="#f97316" stroke="none" d="M 150.072296 52.243622 L 150.072296 39.474121 L 153.117325 39.474121 L 153.117325 45.171265 L 153.215561 45.171265 C 153.903137 44.287231 154.787186 43.796097 155.867676 43.697861 C 158.814484 43.894333 160.484344 45.662399 160.680801 49.198578 C 160.484344 52.63652 159.010941 54.404617 156.26059 54.502838 C 154.787186 54.502838 153.706696 53.913483 153.019104 52.931213 C 153.019104 53.127655 153.019104 53.324112 153.019104 53.61879 C 153.019104 53.913483 152.920868 54.109924 152.920868 54.306381 L 149.875824 54.306381 C 149.875824 54.109924 149.875824 53.815247 149.875824 53.324112 C 150.072296 52.832977 150.072296 52.538284 150.072296 52.243622 Z M 153.117325 49.198578 C 153.215561 51.359573 154.001373 52.538284 155.376541 52.538284 C 156.849945 52.538284 157.635773 51.457809 157.537537 49.198578 C 157.635773 46.939362 156.849945 45.760635 155.376541 45.760635 C 153.903137 45.760635 153.215561 46.939362 153.117325 49.198578 Z"/>
            <path id="path6" fill="#f97316" stroke="none" d="M 165.690369 46.939362 L 162.743561 46.939362 C 162.743561 45.760635 163.234695 44.876602 164.216965 44.385468 C 164.904556 43.992554 165.886826 43.697861 167.262009 43.697861 C 170.110596 43.697861 171.584 44.974823 171.584 47.528732 L 171.584 53.127655 C 171.584 53.225891 171.584 53.324112 171.68222 53.422348 C 171.68222 53.61879 171.780441 53.913483 171.780441 54.20816 L 169.03009 54.20816 C 168.93187 53.717026 168.833633 53.225891 168.833633 52.832977 C 168.146057 53.913483 167.163773 54.404617 165.592148 54.404617 C 163.431152 54.306381 162.252426 53.324112 162.252426 51.457809 C 162.350662 49.886169 163.136475 48.805679 164.511658 48.216309 C 165.493927 47.82341 166.770874 47.626938 168.538956 47.626938 L 168.538956 46.644669 C 168.440735 45.858871 167.9496 45.367737 167.065552 45.367737 C 166.279739 45.465958 165.886826 45.957092 165.690369 46.939362 Z M 168.538956 49.493271 C 166.37796 49.296814 165.29747 49.886169 165.29747 51.06488 C 165.395691 51.948944 165.886826 52.440079 166.869095 52.538284 C 168.047821 52.538284 168.637192 51.556015 168.538956 49.493271 Z"/>
            <path id="path7" fill="#f97316" stroke="none" d="M 173.941437 52.243622 L 173.941437 39.474121 L 176.986481 39.474121 L 176.986481 45.171265 L 177.084702 45.171265 C 177.772293 44.287231 178.656326 43.796097 179.835052 43.697861 C 182.78186 43.894333 184.451736 45.662399 184.648178 49.198578 C 184.451736 52.63652 182.978333 54.404617 180.227966 54.502838 C 178.754562 54.502838 177.674057 53.913483 176.986481 52.931213 C 176.986481 53.127655 176.986481 53.324112 176.986481 53.61879 C 176.986481 53.913483 176.888245 54.20816 176.888245 54.306381 L 173.843216 54.306381 C 173.843216 54.109924 173.843216 53.815247 173.843216 53.324112 C 173.843216 52.832977 173.941437 52.538284 173.941437 52.243622 Z M 176.986481 49.198578 C 177.084702 51.359573 177.870514 52.538284 179.245697 52.538284 C 180.719101 52.538284 181.504913 51.457809 181.406693 49.198578 C 181.504913 46.939362 180.719101 45.760635 179.245697 45.760635 C 177.772293 45.760635 177.084702 46.939362 176.986481 49.198578 Z"/>
            <path id="path8" fill="#f97316" stroke="none" d="M 189.559525 46.939362 L 186.612717 46.939362 C 186.612717 45.760635 187.103851 44.876602 188.086121 44.385468 C 188.773712 43.992554 189.755981 43.697861 191.131149 43.697861 C 193.979736 43.697861 195.45314 44.974823 195.45314 47.528732 L 195.45314 53.127655 C 195.45314 53.225891 195.45314 53.324112 195.551361 53.422348 C 195.551361 53.61879 195.649597 53.913483 195.649597 54.20816 L 192.899231 54.20816 C 192.801025 53.717026 192.702789 53.225891 192.702789 52.832977 C 192.015198 53.913483 191.032928 54.404617 189.461288 54.404617 C 187.300308 54.306381 186.121582 53.324112 186.121582 51.457809 C 186.219803 49.886169 187.005615 48.805679 188.380814 48.216309 C 189.363083 47.82341 190.640015 47.626938 192.408096 47.626938 L 192.408096 46.644669 C 192.309891 45.858871 191.818756 45.367737 190.934692 45.367737 C 190.14888 45.465958 189.755981 45.957092 189.559525 46.939362 Z M 192.408096 49.493271 C 190.247116 49.296814 189.166611 49.886169 189.166611 51.06488 C 189.264847 51.948944 189.755981 52.440079 190.738251 52.538284 C 191.916962 52.538284 192.506332 51.556015 192.408096 49.493271 Z"/>
            <path id="path9" fill="#f97316" stroke="none" d="M 198.203506 53.127655 C 198.203506 52.243622 198.792862 51.654251 199.578674 51.654251 C 200.364487 51.654251 200.953842 52.243622 200.953842 53.127655 C 200.953842 54.011703 200.364487 54.502838 199.578674 54.502838 C 198.792862 54.502838 198.203506 54.011703 198.203506 53.127655 Z"/>
            <path id="path10" fill="#f97316" stroke="none" d="M 203.213074 48.805679 C 203.213074 45.073059 205.766968 42.912064 208.615555 42.912064 C 210.088959 42.912064 211.071228 43.501419 211.85704 44.188995 L 210.874771 45.465958 C 210.187195 44.876602 209.597824 44.483688 208.615555 44.483688 C 206.651016 44.483688 205.079391 46.25177 205.079391 48.805679 C 205.079391 51.359573 206.454559 53.029434 208.517334 53.029434 C 209.499603 53.029434 210.481873 52.538284 211.169464 51.948944 L 211.955276 53.225891 C 210.973007 54.109924 209.696045 54.601059 208.320862 54.601059 C 205.47229 54.601059 203.213074 52.440079 203.213074 48.805679 Z"/>
            <path id="path11" fill="#f97316" stroke="none" d="M 213.134003 48.805679 C 213.134003 45.073059 215.589676 42.912064 218.340027 42.912064 C 221.090363 42.912064 223.546051 45.073059 223.546051 48.805679 C 223.546051 52.440079 221.090363 54.601059 218.340027 54.601059 C 215.589676 54.601059 213.134003 52.440079 213.134003 48.805679 Z M 221.581497 48.805679 C 221.581497 46.25177 220.304565 44.483688 218.340027 44.483688 C 216.375488 44.483688 215.098541 46.25177 215.098541 48.805679 C 215.098541 51.359573 216.375488 53.029434 218.340027 53.029434 C 220.304565 53.029434 221.581497 51.359573 221.581497 48.805679 Z"/>
            <path id="path12" fill="#f97316" stroke="none" d="M 226.394638 43.206726 L 227.966263 43.206726 L 228.16272 44.876602 L 228.260941 44.876602 C 229.24321 43.796097 230.421936 42.912064 231.698883 42.912064 C 233.368744 42.912064 234.252792 43.697861 234.743927 45.073059 C 235.922638 43.796097 237.101364 42.912064 238.378326 42.912064 C 240.637543 42.912064 241.816269 44.483688 241.816269 47.332275 L 241.816269 54.404617 L 239.949951 54.404617 L 239.949951 47.626938 C 239.949951 45.564194 239.26236 44.68013 237.887192 44.68013 C 237.003143 44.68013 236.119095 45.269501 235.038605 46.350006 L 235.038605 54.404617 L 233.172287 54.404617 L 233.172287 47.626938 C 233.172287 45.564194 232.484695 44.68013 231.109528 44.68013 C 230.225479 44.68013 229.341446 45.269501 228.260941 46.350006 L 228.260941 54.404617 L 226.394638 54.404617 L 226.394638 43.206726 Z"/>
        </g>
    </g>
</svg>
