<svg width="196" height="196" viewBox="0 0 196 196" fill="none" xmlns="http://www.w3.org/2000/svg">
  <mask id="mask0_763_4286" style="mask-type:alpha" maskUnits="userSpaceOnUse" x="0" y="0"
    width="196" height="196">
    <rect width="196" height="196" fill="#D9D9D9" />
  </mask>
  <g mask="url(#mask0_763_4286)">
    <rect width="196" height="196" fill="#616161" />
    <path
      d="M194.41 232.001H153.72C160.44 214.071 164.21 204.631 164.22 192.581C164.23 186.521 163.71 181.131 164.43 176.311C173.06 184.521 186.99 200.021 190.22 213.261C193.2 225.411 194.41 232.001 194.41 232.001Z"
      fill="#D85A41" />
    <path
      d="M187.44 202.29C188.51 206.33 189.43 210 190.22 213.26C186.99 200.02 173.06 184.52 164.43 176.31C164.69 174.55 165.12 172.85 165.8 171.23C172.53 177.13 183.88 188.77 187.44 202.29Z"
      fill="#E88B5D" />
    <path
      d="M165.8 171.229C165.12 172.849 164.7 174.549 164.43 176.319C162.83 174.789 161.4 173.519 160.27 172.549C160.75 170.459 161.43 168.889 162.13 168.189C163.03 168.889 164.3 169.919 165.8 171.229Z"
      fill="black" />
    <path
      d="M164.43 176.311C163.71 181.131 164.23 186.521 164.22 192.581C164.21 204.631 160.44 214.071 153.72 232.001H150.96C155.2 219.351 161.58 193.491 159.92 183.041C159.32 179.221 159.6 175.401 160.26 172.551C161.4 173.511 162.83 174.791 164.43 176.311Z"
      fill="black" />
    <path
      d="M163.78 164.329C164.47 165.019 164.3 165.719 163.66 166.549C160.67 166.049 156.03 164.799 152.42 161.699C148.01 157.919 139.21 148.489 129.77 144.709L129.4 144.719C129.33 143.009 129.31 141.329 129.32 139.609C135.18 142.339 144.53 147.839 152.78 156.089C158.62 161.909 162.68 163.229 163.78 164.329Z"
      fill="#E88B5D" />
    <path
      d="M149.1 172.541C149.02 172.331 147.6 169.011 143.98 164.331C141.56 161.231 137.93 158.841 133 155.001C132.99 154.991 132.99 154.991 132.98 154.981C132.98 154.981 129.86 152.781 129.68 150.041C129.57 148.351 129.48 146.741 129.42 145.141C129.42 145.001 129.41 144.871 129.41 144.721L129.78 144.711C139.22 148.481 148.02 157.911 152.43 161.701C156.03 164.801 160.68 166.051 163.67 166.551C163.29 167.041 162.75 167.581 162.14 168.191C161.44 168.891 160.76 170.461 160.28 172.551C159.62 175.401 159.34 179.221 159.94 183.041C161.59 193.491 155.21 219.341 150.98 232.001H136.71C135.47 218.801 139.59 195.141 140 178.371C140.11 173.841 139.65 170.061 138.92 166.941C145.21 168.781 148.88 172.311 149.1 172.541Z"
      fill="#D85A41" />
    <path
      d="M80.1599 53.8C79.4999 50.45 79.6099 46.05 79.6099 46.05C77.9599 48.26 75.7599 57.05 74.1099 62.01C72.4599 66.97 71.3499 68.62 70.8099 70.27C70.3899 71.53 70.2899 75.75 70.2699 78.38L65.1299 81.02L64.9999 81.19C64.8899 81.11 64.7599 81.03 64.6399 80.95C63.8999 80.52 63.1099 80.33 62.3199 80.39L62.2999 80.07C62.2999 80.07 61.3599 76.3 60.4099 72.52C59.5699 69.14 57.0599 60.36 56.4999 58.16C55.9499 55.96 54.8499 55.96 54.8499 55.96C57.0599 48.26 61.4599 40.16 61.4599 40.16C59.8099 40.16 57.6099 40.71 57.6099 40.71C62.5599 34.66 72.4599 28.06 76.3099 27.51C75.2199 24.96 70.2599 23.11 70.2599 23.11C72.6799 23.45 79.2799 25.34 80.2299 27.22C80.2299 27.22 89.6699 16.84 100.42 14.75L100.05 16.84C100.05 16.84 122.7 16.84 134.97 27.22L133.08 28.16C133.08 28.16 146.29 40.43 150.59 55.4C150.59 55.4 148.39 53.19 147.29 52.64C147.29 52.64 147.85 64.75 147.29 70.25C146.85 74.76 146.34 81.71 146.2 83.45L146.12 83.71C145.52 83.54 144.96 83.66 144.68 83.99L144.26 84.02C144.24 83.82 144.22 83.63 144.21 83.44L143.78 83.26C144.4 81.84 144.91 80.1 145.36 77.95C145.96 75.06 146.17 71.43 143.61 68.85L143.79 68.67C143.42 62.58 142.48 55.6 140.15 51.52C135.75 43.82 124.2 38.87 124.2 38.87C125.85 41.62 126.4 44.92 126.4 44.92C119.79 38.31 108.24 37.22 108.24 37.22C110.91 39.35 112.54 43.54 112.64 43.81C109.29 42.45 105.77 41.46 102.43 40.74C102.42 40.74 102.4 40.73 102.39 40.73C93.6899 38.87 86.2299 38.87 86.2299 38.87C83.1899 41.91 81.2399 54.07 80.9499 55.95C80.9199 56.11 80.9099 56.2 80.9099 56.2C80.5999 55.55 80.3599 54.71 80.1699 53.78C80.1599 53.81 80.1599 53.81 80.1599 53.8Z"
      fill="black" />
    <path
      d="M146.1 83.7309C147.54 84.1409 149.28 86.2009 148.37 91.1709C147.27 97.2209 143.97 101.631 143.97 101.631L143.61 101.561C144.74 95.3309 144.51 88.3709 144.22 84.0509L144.64 84.0209C144.94 83.6809 145.5 83.5609 146.1 83.7309Z"
      fill="#F29978" />
    <path
      d="M143.98 164.33C147.6 169.01 149.03 172.33 149.1 172.54C148.87 172.31 145.2 168.78 138.91 166.94V166.93C137.01 158.85 133.3 155.28 132.99 154.99C137.93 158.84 141.56 161.22 143.98 164.33Z"
      fill="black" />
    <path
      d="M143.58 68.8795C146.14 71.4595 145.93 75.0895 145.33 77.9795C144.89 80.1295 144.38 81.8795 143.75 83.2895C142.27 86.6595 140.11 88.1195 136.39 88.5795C136.65 81.5195 136.12 73.6195 134.52 65.6895C139.12 65.9895 141.93 67.2095 143.58 68.8795Z"
      fill="#F29978" />
    <path
      d="M144.23 84.0391C144.51 88.3591 144.75 95.3291 143.62 101.549C143.18 103.999 142.52 106.339 141.56 108.369C137.9 116.159 134.59 120.629 129.87 124.479C128.78 125.369 127.62 126.229 126.37 127.079C122.61 129.629 117.44 133.599 107.76 131.629C123.64 128.189 130.24 115.929 133.52 106.329C135.09 101.749 136.13 95.5691 136.39 88.5791C140.11 88.1191 142.27 86.6491 143.75 83.2891L144.18 83.4691C144.2 83.6491 144.22 83.8391 144.23 84.0391Z"
      fill="#F29978" />
    <path
      d="M137.92 29C137.92 29 148.92 41.11 150.57 55.41C146.28 40.43 133.06 28.17 133.06 28.17L134.95 27.23C122.69 16.84 100.04 16.84 100.04 16.84L100.41 14.75C89.66 16.84 80.22 27.22 80.22 27.22C79.28 25.33 72.67 23.45 70.25 23.11C70.25 23.11 76.53 22.74 79.27 24.39C87.77 14.95 100.51 11.55 108.77 11L104.36 14.85C104.36 14.85 129.12 14.7 140.67 29.55L137.92 29Z"
      fill="#3B3B3F" />
    <path
      d="M133.35 61.35C130.86 55.52 124.01 50.68 116.54 46.86C116.5 46.84 116.46 46.82 116.42 46.8C111.66 44.37 106.66 42.36 102.4 40.77C105.74 41.49 109.26 42.48 112.61 43.84C112.52 43.58 110.88 39.39 108.21 37.25C108.21 37.25 119.76 38.34 126.37 44.95C126.37 44.95 125.82 41.65 124.17 38.9C124.17 38.9 135.72 43.84 140.12 51.55C142.45 55.63 143.39 62.61 143.76 68.7L143.58 68.88C141.93 67.21 139.12 65.99 134.52 65.69C134.38 64.98 134.23 64.27 134.07 63.56C133.9 62.81 133.67 62.07 133.35 61.35Z"
      fill="#F29978" />
    <path
      d="M138.91 166.93C139.64 170.05 140.1 173.84 139.99 178.37C139.57 195.14 135.46 218.8 136.7 232H85.67C82.37 210.54 82.92 200.09 82.37 185.16C81.85 170.89 78.56 158.99 74.19 150C73.99 149.58 73.78 149.16 73.58 148.75C73.06 147.75 72.47 146.88 71.78 146.14L71.77 146.13C67.55 141.26 68.62 136.35 72.56 133.91C71.9 134.46 71.57 135.42 71.93 136.84C72.48 139.04 83.16 159.34 115.39 164.9C131.35 167.65 133 157.75 133 154.99C133.01 155 133.01 155 133.02 155.01C133.31 155.28 137.02 158.86 138.91 166.93Z"
      fill="black" />
    <path
      d="M134.52 65.6904C136.11 73.6304 136.65 81.5204 136.39 88.5804C134.86 88.7704 133.07 88.7904 130.95 88.7004C124.48 88.4304 119.81 87.0104 118.51 78.0804C118.18 75.8604 117.86 73.1704 118.43 70.9304C118.68 69.9204 119.13 69.0004 119.83 68.2604C120.33 67.7204 121.01 67.2904 121.84 66.9404C124.4 65.8704 128.31 65.5904 132.42 65.6104C133.17 65.6104 133.86 65.6404 134.52 65.6904ZM134.07 76.0404C134.07 74.0604 132.48 72.4604 130.49 72.4604C128.52 72.4604 126.91 74.0504 126.91 76.0404C126.91 78.0104 128.51 79.6204 130.49 79.6204C132.48 79.6204 134.07 78.0104 134.07 76.0404Z"
      fill="#FBBFA0" />
    <path
      d="M134.07 63.5496C134.23 64.2596 134.38 64.9696 134.52 65.6796C133.86 65.6296 133.16 65.5996 132.43 65.5996C128.33 65.5796 124.41 65.8596 121.85 66.9296L121.27 64.4896C124.37 62.9296 129.38 61.3896 133.35 61.3496C133.67 62.0696 133.9 62.8096 134.07 63.5496Z"
      fill="#FBBFA0" />
    <path
      d="M70.9 103.58L69.84 103.66C64.18 104.6 58.23 97.54 57.2 90.37C56.33 84.25 59.2699 80.57 62.3099 80.39C63.0999 80.32 63.9 80.51 64.63 80.95C64.75 81.03 64.8799 81.1 64.9899 81.19C68.2099 83.56 68.21 90.38 68.21 90.38C68.22 90.24 68.24 90.11 68.26 89.96L68.4299 89.98C69.3699 87.15 71.26 84.32 72.2 81.49C72.37 80.97 72.5299 80.47 72.6699 79.99L81.1599 75.36L81.4199 75.34C81.4799 76.51 81.71 77.66 82.01 78.71C84.45 87.16 88.2299 89.99 97.5499 89.55C104.28 89.23 109.33 87.54 110.47 78.22C110.77 75.79 111.05 72.83 110.25 70.44C111.77 69.44 116.82 69.14 118.42 70.94C117.84 73.19 118.17 75.88 118.5 78.09C119.8 87.02 124.46 88.43 130.94 88.71C133.05 88.79 134.85 88.78 136.38 88.59C136.13 95.58 135.08 101.76 133.51 106.34C130.23 115.94 123.63 128.2 107.75 131.64C106.35 131.36 104.85 130.95 103.26 130.39C99.17 128.97 95.2999 127.35 91.8699 125.72C100.92 135.49 118.12 144.16 129.31 145.14H129.4C129.47 146.73 129.55 148.35 129.66 150.04C129.84 152.79 132.96 154.98 132.96 154.98C132.96 157.74 131.31 167.63 115.35 164.89C83.1199 159.33 72.44 139.03 71.89 136.83C71.53 135.41 71.86 134.45 72.52 133.9C72.55 133.88 72.5799 133.86 72.5999 133.84C72.9599 133.57 73.4 133.41 73.89 133.35H73.9C74.17 132.25 74.4199 130.95 74.6199 129.55C74.8299 128.1 74.9899 126.52 75.0999 124.9C75.4199 120.49 75.4 115.8 75.02 112.5C73.39 110.01 71.91 107.03 70.9 103.58Z"
      fill="#FBBFA0" />
    <path
      d="M130.49 79.6209C132.467 79.6209 134.07 78.0181 134.07 76.0409C134.07 74.0638 132.467 72.4609 130.49 72.4609C128.513 72.4609 126.91 74.0638 126.91 76.0409C126.91 78.0181 128.513 79.6209 130.49 79.6209Z"
      fill="black" />
    <path
      d="M107.76 131.63C117.44 133.6 122.61 129.63 126.37 127.08C127.63 126.23 128.79 125.37 129.87 124.48L130.22 124.9C129.61 130.64 129.34 135.23 129.31 139.6C129.3 141.33 129.33 143.01 129.39 144.71C129.39 144.85 129.4 144.98 129.4 145.13H129.31C118.13 144.15 100.92 135.48 91.8699 125.71C95.2999 127.34 99.1699 128.96 103.26 130.38C104.86 130.94 106.36 131.35 107.76 131.63Z"
      fill="#F29978" />
    <path
      d="M116.55 46.8606C124.01 50.6806 130.87 55.5206 133.36 61.3506C129.39 61.4006 124.38 62.9406 121.28 64.4906L121.86 66.9306C121.03 67.2806 120.35 67.7106 119.85 68.2506C119.15 69.0006 118.71 69.9106 118.45 70.9206C116.85 69.1206 111.8 69.4206 110.28 70.4206C109.98 69.5006 109.51 68.6706 108.83 67.9906C106.62 65.7706 101.16 65.3706 95.39 65.5206C86.13 65.7706 82.65 68.9006 81.73 72.4706L73.53 76.6906C74.03 74.2306 74.11 72.4406 74.11 71.0906C74.11 67.5506 77.42 65.6706 80.18 53.8006C80.37 54.7206 80.6 55.5606 80.92 56.2206C80.92 56.2206 80.93 56.1406 80.96 55.9706L81.67 55.9906C84.5 47.5006 86.53 43.2906 88.28 40.8906C88.28 40.8906 106.07 41.8206 116.46 46.7906C116.46 46.8206 116.51 46.8406 116.55 46.8606Z"
      fill="#FBBFA0" />
    <path
      d="M81.7198 72.48C82.6398 68.91 86.1299 65.78 95.3799 65.53C101.15 65.38 106.61 65.78 108.82 68C109.5 68.68 109.97 69.51 110.27 70.43C111.06 72.82 110.79 75.78 110.49 78.21C109.35 87.53 104.3 89.22 97.5699 89.54C88.2499 89.97 84.4699 87.14 82.0299 78.7C81.7299 77.65 81.4899 76.5 81.4399 75.33C81.3899 74.38 81.4598 73.42 81.7198 72.48ZM99.4098 76.04C99.4098 74.06 97.8199 72.46 95.8399 72.46C93.8599 72.46 92.2599 74.05 92.2599 76.04C92.2599 78.01 93.8499 79.62 95.8399 79.62C97.8199 79.62 99.4098 78.01 99.4098 76.04Z"
      fill="#FBBFA0" />
    <path
      d="M102.4 40.7704C106.67 42.3604 111.67 44.3704 116.42 46.8004C106.03 41.8404 88.2399 40.9004 88.2399 40.9004C86.4899 43.3004 84.4699 47.5104 81.6299 56.0004L80.9199 55.9804C81.1999 54.1004 83.16 41.9404 86.2 38.9004C86.2 38.9004 93.6599 38.9004 102.36 40.7604C102.37 40.7604 102.39 40.7704 102.4 40.7704Z"
      fill="#F29978" />
    <path
      d="M95.84 72.4609C97.81 72.4609 99.41 74.0509 99.41 76.0409C99.41 78.0109 97.82 79.6209 95.84 79.6209C93.86 79.6209 92.26 78.0209 92.26 76.0409C92.27 74.0609 93.86 72.4609 95.84 72.4609Z"
      fill="black" />
    <path
      d="M14.4999 196.599C16.6399 213.779 17.0499 231.999 17.0499 231.999H-23.5801C-23.5801 231.999 -21.38 219.889 -16.97 203.939C-14.22 193.979 -10.4101 185.149 -5.28009 177.669L-5.18005 177.739C12.4999 162.259 37.6799 150.819 47.8499 146.539H47.8599C51.8099 146.779 56.13 146.119 59.46 146.119C66.07 146.119 70.9499 146.319 74.1699 149.989C78.5399 158.979 81.8299 170.879 82.3499 185.149C82.9099 200.089 82.35 210.539 85.65 231.989H26.2999C25.4899 222.559 18.8899 207.459 14.4999 196.599ZM79.0499 196.239C79.0499 194.719 78.0699 193.479 76.8499 193.479C75.6399 193.479 74.65 194.719 74.65 196.239C74.65 197.759 75.6399 198.989 76.8499 198.989C78.0699 198.989 79.0499 197.759 79.0499 196.239ZM74.6599 157.729C74.6599 156.209 73.68 154.969 72.46 154.969C71.24 154.969 70.2599 156.209 70.2599 157.729C70.2599 159.249 71.24 160.479 72.46 160.479C73.68 160.479 74.6599 159.249 74.6599 157.729Z"
      fill="#D85A41" />
    <path
      d="M73.52 76.7005L81.7199 72.4805C81.4699 73.4105 81.3899 74.3805 81.4399 75.3305L81.1799 75.3505L72.6899 79.9805C73.0299 78.7805 73.31 77.6805 73.52 76.7005Z"
      fill="#F29978" />
    <path
      d="M80.16 53.8008C80.16 53.8108 80.16 53.8208 80.16 53.8208C77.4 65.6908 74.09 67.5708 74.09 71.1108C74.09 72.4608 74.01 74.2408 73.51 76.7108L70.26 78.3808C70.28 75.7608 70.37 71.5408 70.8 70.2708C71.35 68.6208 72.45 66.9708 74.1 62.0108C75.75 57.0508 77.95 48.2608 79.6 46.0508C79.61 46.0508 79.5 50.4508 80.16 53.8008Z"
      fill="#F29978" />
    <path
      d="M76.8599 193.49C78.0799 193.49 79.0599 194.73 79.0599 196.25C79.0599 197.77 78.0799 199 76.8599 199C75.6499 199 74.6599 197.77 74.6599 196.25C74.6599 194.73 75.6499 193.49 76.8599 193.49Z"
      fill="black" />
    <path
      d="M75.1299 124.899C75.0199 126.519 74.8599 128.099 74.6499 129.549C73.4499 129.389 69.6799 129.139 66.5399 131.489C61.2099 135.489 49.5499 140.929 37.2899 142.809L36.4999 142.849C36.3499 142.259 37.0799 141.669 37.9399 141.419C45.4299 139.239 55.0299 134.129 60.9099 130.219C67.4999 125.829 68.0599 124.179 75.1299 124.899Z"
      fill="#E88B5D" />
    <path
      d="M47.8699 146.54C45.2699 146.39 42.85 145.86 40.96 144.52C43.96 145.03 47.6599 145.12 51.5599 143.97C59.6599 141.59 67.3499 141.27 71.7499 146.12L71.7599 146.13C72.4499 146.88 73.0399 147.74 73.5599 148.74C73.7699 149.15 73.9799 149.56 74.1699 149.99C70.9499 146.32 66.06 146.12 59.46 146.12C56.13 146.13 51.8199 146.78 47.8699 146.54Z"
      fill="black" />
    <path
      d="M72.46 154.98C73.68 154.98 74.66 156.22 74.66 157.74C74.66 159.26 73.68 160.49 72.46 160.49C71.24 160.49 70.26 159.26 70.26 157.74C70.26 156.21 71.24 154.98 72.46 154.98Z"
      fill="black" />
    <path
      d="M40.96 144.519C40.72 144.479 40.5 144.439 40.27 144.399C39.45 144.239 38.69 144.049 38.01 143.859C37.05 143.589 36.59 143.219 36.5 142.859L37.29 142.819C49.56 140.929 61.21 135.499 66.54 131.499C69.67 129.149 73.45 129.399 74.65 129.559C74.45 130.969 74.21 132.259 73.93 133.359H73.92C73.43 133.419 72.99 133.579 72.63 133.849C72.6 133.869 72.57 133.889 72.55 133.909C68.61 136.349 67.54 141.259 71.76 146.129C67.35 141.279 59.66 141.599 51.57 143.979C47.66 145.129 43.96 145.029 40.96 144.519Z"
      fill="#D85A41" />
    <path
      d="M72.68 79.9795C72.54 80.4595 72.38 80.9595 72.21 81.4795C71.27 84.3095 69.38 87.1395 68.44 89.9695L68.27 89.9494C68.85 84.7194 70.27 81.7695 70.27 80.1495C70.27 79.7695 70.27 79.1295 70.28 78.3595L73.53 76.6895C73.31 77.6795 73.03 78.7795 72.68 79.9795Z"
      fill="#F29978" />
    <path
      d="M70.27 78.3691C70.26 79.1391 70.26 79.7891 70.26 80.1591C70.26 81.7691 68.84 84.7291 68.26 89.9591C68.24 90.0991 68.22 90.2291 68.21 90.3791C68.21 90.3791 68.21 83.5591 64.99 81.1891L65.12 81.0191L70.27 78.3691Z"
      fill="black" />
    <path
      d="M40.96 144.52C42.85 145.86 45.27 146.39 47.86 146.54C37.69 150.81 12.51 162.26 -5.16998 177.74L-5.27002 177.67C-0.90002 171.27 4.41998 165.86 10.86 161.58C22.41 153.88 34.51 147.27 40.28 144.4C40.5 144.45 40.72 144.48 40.96 144.52Z"
      fill="#E88B5D" />
    <path
      d="M79.2799 24.3897C76.5299 22.7397 70.2599 23.1097 70.2599 23.1097C70.2599 23.1097 75.2199 24.9597 76.3099 27.5097C72.4599 28.0597 62.5599 34.6597 57.6099 40.7097C57.6099 40.7097 59.8099 40.1597 61.4599 40.1597C61.4599 40.1597 57.0599 48.2597 54.8499 55.9597C54.8499 55.9597 55.9499 55.9597 56.4999 58.1597C57.0599 60.3597 59.5699 69.1397 60.4099 72.5197C61.3499 76.2897 62.2999 80.0697 62.2999 80.0697"
      stroke="black" stroke-width="2" stroke-miterlimit="10" stroke-linecap="round"
      stroke-linejoin="round" />
    <path
      d="M79.28 24.39C87.77 14.95 100.51 11.55 108.77 11L104.36 14.85C104.36 14.85 129.12 14.7 140.67 29.55L137.92 29C137.92 29 148.92 41.11 150.57 55.41C150.57 55.41 148.37 53.2 147.27 52.65C147.27 52.65 147.83 64.76 147.27 70.26C146.83 74.77 146.32 81.72 146.18 83.46"
      stroke="black" stroke-width="2" stroke-miterlimit="10" stroke-linecap="round"
      stroke-linejoin="round" />
    <path
      d="M80.1599 53.8008C79.4999 50.4508 79.6099 46.0508 79.6099 46.0508C77.9599 48.2608 75.7599 57.0508 74.1099 62.0108C72.4599 66.9708 71.3499 68.6208 70.8099 70.2708C70.3899 71.5308 70.29 75.7508 70.27 78.3808C70.26 79.1508 70.26 79.8008 70.26 80.1708C70.26 81.7808 68.84 84.7408 68.26 89.9708C68.24 90.1108 68.22 90.2408 68.21 90.3908C68.21 90.3908 68.2099 83.5708 64.9899 81.2008C64.8799 81.1208 64.75 81.0408 64.63 80.9608C63.89 80.5308 63.0999 80.3408 62.3099 80.4008C59.2699 80.5808 56.34 84.2708 57.2 90.3808C58.23 97.5508 64.17 104.611 69.84 103.671"
      stroke="black" stroke-width="2" stroke-miterlimit="10" stroke-linecap="round"
      stroke-linejoin="round" />
    <path
      d="M102.36 40.7604C93.6599 38.9004 86.1999 38.9004 86.1999 38.9004C83.1599 41.9404 81.2099 54.1004 80.9199 55.9804C80.8899 56.1404 80.8799 56.2304 80.8799 56.2304C80.5699 55.5804 80.3299 54.7404 80.1399 53.8104"
      stroke="black" stroke-width="2" stroke-miterlimit="10" stroke-linecap="round"
      stroke-linejoin="round" />
    <path d="M112.62 43.8495C109.26 42.4795 105.74 41.4895 102.4 40.7695" stroke="black"
      stroke-width="2" stroke-miterlimit="10" stroke-linecap="round" stroke-linejoin="round" />
    <path
      d="M143.76 68.7C143.39 62.61 142.45 55.63 140.12 51.55C135.72 43.85 124.17 38.9 124.17 38.9C125.82 41.65 126.37 44.95 126.37 44.95C119.76 38.34 108.21 37.25 108.21 37.25C110.88 39.38 112.51 43.57 112.61 43.84"
      stroke="black" stroke-width="2" stroke-miterlimit="10" stroke-linecap="round"
      stroke-linejoin="round" />
    <path
      d="M91.8799 125.711C95.3099 127.341 99.1799 128.961 103.27 130.381C104.86 130.941 106.37 131.341 107.76 131.631C117.44 133.601 122.61 129.631 126.37 127.081C127.63 126.231 128.79 125.371 129.87 124.481C134.59 120.631 137.9 116.161 141.56 108.371C142.51 106.341 143.17 104.001 143.62 101.551C144.75 95.3209 144.52 88.3609 144.23 84.0409C144.21 83.8409 144.19 83.6509 144.18 83.4609"
      stroke="black" stroke-width="2" stroke-miterlimit="10" stroke-linecap="round"
      stroke-linejoin="round" />
    <path d="M87.6499 123.561C88.9499 124.271 90.3599 124.981 91.8599 125.701" stroke="black"
      stroke-width="2" stroke-miterlimit="10" stroke-linecap="round" stroke-linejoin="round" />
    <path
      d="M69.7 97.2109C69.91 99.4709 70.33 101.601 70.9 103.571C71.91 107.021 73.3899 110.011 75.0399 112.501C77.4599 116.181 80.2199 118.801 82.3499 120.321"
      stroke="black" stroke-width="2" stroke-miterlimit="10" stroke-linecap="round"
      stroke-linejoin="round" />
    <path d="M62.7099 83.7793C61.0599 84.3293 59.4099 88.1793 61.0599 91.4793" stroke="black"
      stroke-width="2" stroke-miterlimit="10" stroke-linecap="round" stroke-linejoin="round" />
    <path
      d="M75.0399 112.5C75.4299 115.8 75.4499 120.49 75.1199 124.9C75.0099 126.52 74.85 128.1 74.64 129.55C74.44 130.96 74.1999 132.25 73.9199 133.35C73.7999 133.81 73.6799 134.23 73.5499 134.61"
      stroke="black" stroke-width="2" stroke-miterlimit="10" stroke-linecap="round"
      stroke-linejoin="round" />
    <path d="M72.6299 133.849C72.9899 133.579 73.4299 133.419 73.9199 133.359" stroke="black"
      stroke-width="2" stroke-miterlimit="10" stroke-linecap="round" stroke-linejoin="round" />
    <path
      d="M130.22 124.9C129.61 130.64 129.34 135.23 129.31 139.6C129.3 141.33 129.33 143.01 129.39 144.71C129.39 144.85 129.4 144.98 129.4 145.13C129.47 146.72 129.55 148.34 129.66 150.03C129.84 152.78 132.96 154.97 132.96 154.97C132.96 157.73 131.31 167.62 115.35 164.88C83.1199 159.32 72.44 139.02 71.89 136.82C71.53 135.4 71.86 134.44 72.52 133.89"
      stroke="black" stroke-width="2" stroke-miterlimit="10" stroke-linecap="round"
      stroke-linejoin="round" />
    <path
      d="M71.76 146.141C72.45 146.891 73.04 147.751 73.56 148.751C73.77 149.161 73.98 149.571 74.17 150.001C78.54 158.991 81.83 170.891 82.35 185.161C82.91 200.101 82.35 210.551 85.65 232.001"
      stroke="black" stroke-width="2" stroke-miterlimit="10" stroke-linecap="round"
      stroke-linejoin="round" />
    <path
      d="M75.1299 124.899C68.0599 124.169 67.5098 125.819 60.9098 130.219C55.0298 134.139 45.4299 139.239 37.9399 141.419C37.0699 141.669 36.3499 142.269 36.4999 142.849C36.5899 143.209 37.0499 143.579 38.0099 143.849C38.6999 144.039 39.4499 144.229 40.2699 144.389C40.4999 144.439 40.7199 144.469 40.9599 144.509C43.9599 145.019 47.6599 145.109 51.5599 143.959C59.6599 141.579 67.3499 141.259 71.7499 146.109"
      stroke="black" stroke-width="2" stroke-miterlimit="10" stroke-linecap="round"
      stroke-linejoin="round" />
    <path
      d="M72.63 133.85C72.6 133.87 72.57 133.89 72.55 133.91C68.61 136.35 67.54 141.26 71.76 146.13L71.77 146.14"
      stroke="black" stroke-width="2" stroke-miterlimit="10" stroke-linecap="round"
      stroke-linejoin="round" />
    <path
      d="M129.32 139.6C135.18 142.33 144.53 147.83 152.78 156.08C158.62 161.91 162.69 163.23 163.78 164.33C164.47 165.02 164.3 165.72 163.66 166.55C163.28 167.04 162.74 167.58 162.13 168.19C161.43 168.89 160.75 170.46 160.27 172.55C159.61 175.4 159.33 179.22 159.93 183.04C161.58 193.49 155.2 219.34 150.97 232"
      stroke="black" stroke-width="2" stroke-miterlimit="10" stroke-linecap="round"
      stroke-linejoin="round" />
    <path
      d="M40.27 144.4C34.49 147.28 22.3999 153.88 10.8499 161.58C4.40991 165.86 -0.91009 171.27 -5.28009 177.67C-10.4101 185.15 -14.23 193.99 -16.97 203.94C-21.38 219.89 -23.5801 232 -23.5801 232"
      stroke="black" stroke-width="2" stroke-miterlimit="10" stroke-linecap="round"
      stroke-linejoin="round" />
    <path
      d="M138.91 166.939C139.64 170.049 140.1 173.839 139.99 178.369C139.57 195.139 135.46 218.799 136.7 231.999"
      stroke="black" stroke-width="2" stroke-miterlimit="10" stroke-linecap="round"
      stroke-linejoin="round" />
    <path
      d="M132.98 154.98C132.99 154.99 132.99 154.99 133 155C133.31 155.28 137.02 158.86 138.92 166.94"
      stroke="black" stroke-width="2" stroke-miterlimit="10" stroke-linecap="round"
      stroke-linejoin="round" />
    <path
      d="M149.1 172.54C149.02 172.33 147.6 169.01 143.98 164.33C141.56 161.23 137.93 158.84 133 155"
      stroke="black" stroke-width="2" stroke-miterlimit="10" stroke-linecap="round"
      stroke-linejoin="round" />
    <path
      d="M165.8 171.24C172.53 177.13 183.88 188.77 187.44 202.3C188.51 206.34 189.43 210.01 190.22 213.27C193.2 225.42 194.41 232.01 194.41 232.01"
      stroke="black" stroke-width="2" stroke-miterlimit="10" stroke-linecap="round"
      stroke-linejoin="round" />
    <path d="M162.13 168.189C163.04 168.889 164.3 169.919 165.8 171.229" stroke="black"
      stroke-width="2" stroke-miterlimit="10" stroke-linecap="round" stroke-linejoin="round" />
    <path
      d="M11.9399 181.391C12.9899 185.971 13.8299 191.231 14.4999 196.601C16.6399 213.781 17.0499 232.001 17.0499 232.001"
      stroke="black" stroke-width="2" stroke-miterlimit="10" stroke-linecap="round"
      stroke-linejoin="round" />
    <path
      d="M144.66 84.0092C144.94 83.6792 145.5 83.5592 146.1 83.7292C147.54 84.1392 149.28 86.1992 148.37 91.1692C147.27 97.2192 143.97 101.629 143.97 101.629"
      stroke="black" stroke-width="2" stroke-miterlimit="10" stroke-linecap="round"
      stroke-linejoin="round" />
    <path d="M106.18 63.5503C100.52 61.6603 92.2699 60.9103 87.8599 62.0003" stroke="black"
      stroke-width="3" stroke-miterlimit="10" stroke-linecap="round" stroke-linejoin="round" />
    <path
      d="M121.27 64.5004C124.37 62.9404 129.38 61.4004 133.35 61.3604C134.22 61.3504 135.04 61.4104 135.78 61.5604"
      stroke="black" stroke-width="3" stroke-miterlimit="10" stroke-linecap="round"
      stroke-linejoin="round" />
    <path
      d="M110.27 70.43C111.06 72.82 110.79 75.78 110.49 78.21C109.35 87.53 104.3 89.22 97.5699 89.54C88.2499 89.97 84.47 87.14 82.03 78.7C81.73 77.65 81.4899 76.5 81.4399 75.33C81.3899 74.38 81.4699 73.41 81.7199 72.48C82.6399 68.91 86.1299 65.78 95.3799 65.53C101.15 65.38 106.61 65.78 108.82 68C109.5 68.69 109.97 69.52 110.27 70.43Z"
      stroke="black" stroke-width="2" stroke-miterlimit="10" stroke-linecap="round"
      stroke-linejoin="round" />
    <path
      d="M143.75 83.2904C144.37 81.8704 144.88 80.1304 145.33 77.9804C145.93 75.0904 146.14 71.4604 143.58 68.8804C141.93 67.2104 139.12 65.9904 134.52 65.6904C133.86 65.6404 133.16 65.6104 132.43 65.6104C128.33 65.5904 124.41 65.8704 121.85 66.9404C121.02 67.2904 120.34 67.7204 119.84 68.2604C119.14 69.0104 118.7 69.9204 118.44 70.9304C117.86 73.1804 118.19 75.8704 118.52 78.0804C119.82 87.0104 124.48 88.4204 130.96 88.7004C133.07 88.7804 134.87 88.7704 136.4 88.5804C140.11 88.1204 142.27 86.6504 143.75 83.2904Z"
      stroke="black" stroke-width="2" stroke-miterlimit="10" stroke-linecap="round"
      stroke-linejoin="round" />
    <path d="M110.27 70.4303C111.79 69.4303 116.84 69.1303 118.44 70.9303" stroke="black"
      stroke-width="2" stroke-miterlimit="10" stroke-linecap="round" stroke-linejoin="round" />
    <path d="M81.8199 72.4199L81.7198 72.4799L73.5199 76.6999L70.2699 78.3699L65.1299 81.0099"
      stroke="black" stroke-width="2" stroke-miterlimit="10" stroke-linecap="round"
      stroke-linejoin="round" />
    <path
      d="M114.36 73.3105C115.14 80.0705 118.92 84.2705 118.92 87.6205C118.92 91.4705 116.48 93.9105 112.07 93.9105"
      stroke="black" stroke-width="2" stroke-miterlimit="10" stroke-linecap="round"
      stroke-linejoin="round" />
    <path d="M100.41 103.41C108.04 106.57 117.99 107.01 124.17 105.48" stroke="black"
      stroke-width="2" stroke-miterlimit="10" stroke-linecap="round" stroke-linejoin="round" />
    <path d="M102.36 40.7598C102.37 40.7598 102.39 40.7698 102.4 40.7698" stroke="black"
      stroke-width="2" stroke-miterlimit="10" stroke-linecap="round" stroke-linejoin="round" />
    <path d="M91.8599 125.699L91.8799 125.709" stroke="black" stroke-width="2"
      stroke-miterlimit="10" stroke-linecap="round" stroke-linejoin="round" />
    <path d="M149.1 172.539C149.11 172.549 149.11 172.549 149.1 172.539Z" stroke="black"
      stroke-width="2" stroke-miterlimit="10" stroke-linecap="round" stroke-linejoin="round" />
    <path d="M138.91 166.93V166.94" stroke="black" stroke-width="2" stroke-miterlimit="10"
      stroke-linecap="round" stroke-linejoin="round" />
  </g>
</svg>