<svg width="338" height="337" viewBox="0 0 338 337" fill="none" xmlns="http://www.w3.org/2000/svg">
<mask id="mask0_763_4271" style="mask-type:alpha" maskUnits="userSpaceOnUse" x="0" y="0" width="338" height="337">
<rect x="0.5" width="337" height="337" fill="#D9D9D9"/>
</mask>
<g mask="url(#mask0_763_4271)">
<path d="M277.99 337H237.3C244.02 319.07 247.79 309.63 247.8 297.58C247.81 289.29 246.85 282.27 249.38 276.23C256.11 282.12 267.46 293.76 271.02 307.29C276.05 326.39 277.99 337 277.99 337Z" fill="white"/>
<path d="M249.38 276.229C246.85 282.279 247.81 289.299 247.8 297.589C247.79 309.639 244.02 319.079 237.3 337.009H234.54C238.78 324.359 245.16 298.499 243.5 288.049C242.46 281.429 244.06 274.839 245.7 273.199C246.62 273.889 247.88 274.919 249.38 276.229Z" fill="black"/>
<path d="M232.69 277.539C232.61 277.329 231.19 274.009 227.57 269.329C225.15 266.229 221.52 263.839 216.59 259.999C216.58 259.989 216.58 259.989 216.57 259.979C216.57 259.979 213.45 257.779 213.27 255.039C213.16 253.349 213.07 251.739 213.01 250.139C212.94 248.289 212.91 246.469 212.92 244.609C218.78 247.339 228.13 252.839 236.38 261.089C242.22 266.919 246.29 268.239 247.38 269.339C248.48 270.439 247.38 271.549 245.73 273.199C244.09 274.839 242.49 281.439 243.53 288.049C245.18 298.499 238.8 324.349 234.57 337.009H220.3C219.06 323.809 223.18 300.149 223.59 283.379C223.7 278.849 223.24 275.069 222.51 271.949C228.79 273.779 232.46 277.309 232.69 277.539Z" fill="white"/>
<path d="M234.16 160.41C234.16 160.41 231.96 158.2 230.86 157.65C230.86 157.65 231.42 169.76 230.86 175.26C230.42 179.77 229.91 186.72 229.77 188.46L229.69 188.72C229.09 188.55 228.53 188.67 228.25 189L227.83 189.03C227.81 188.83 227.79 188.64 227.78 188.45L227.35 188.27C227.97 186.85 228.48 185.11 228.93 182.96C229.53 180.07 229.74 176.44 227.18 173.86L227.36 173.68C226.99 167.59 226.05 160.61 223.72 156.53C219.32 148.83 207.77 143.88 207.77 143.88C209.42 146.63 209.97 149.93 209.97 149.93C203.36 143.32 191.81 142.23 191.81 142.23C194.48 144.36 196.11 148.55 196.21 148.82C184.1 143.88 169.81 143.88 169.81 143.88C166.52 147.17 164.5 161.21 164.5 161.21C163.04 158.18 163.22 151.03 163.22 151.03C161.57 153.24 159.37 162.03 157.72 166.99C156.07 171.94 154.96 173.6 154.42 175.25C154 176.51 153.9 180.73 153.88 183.36L148.74 186L148.61 186.17C148.5 186.09 148.37 186.01 148.25 185.93C147.51 185.5 146.72 185.31 145.93 185.37L145.91 185.05C145.91 185.05 144.97 181.28 144.02 177.5C143.18 174.12 140.67 165.34 140.11 163.14C139.56 160.94 138.46 160.94 138.46 160.94C140.67 153.24 145.07 145.14 145.07 145.14C143.42 145.14 141.22 145.69 141.22 145.69C146.17 139.64 156.07 133.04 159.92 132.49C158.83 129.94 153.87 128.09 153.87 128.09C156.29 128.43 162.89 130.32 163.84 132.2C163.84 132.2 173.28 121.82 184.03 119.73L183.66 121.82C183.66 121.82 206.31 121.82 218.58 132.2L216.69 133.14C216.65 133.17 229.87 145.43 234.16 160.41Z" fill="black"/>
<path d="M229.69 188.731C231.13 189.141 232.87 191.201 231.96 196.171C230.86 202.221 227.56 206.631 227.56 206.631L227.2 206.561C228.33 200.331 228.1 193.371 227.81 189.051L228.23 189.021C228.53 188.681 229.08 188.561 229.69 188.731Z" fill="white"/>
<path d="M227.56 269.33C231.18 274.01 232.61 277.33 232.68 277.54C232.45 277.31 228.78 273.78 222.49 271.94V271.93C220.59 263.85 216.88 260.28 216.57 259.99C221.51 263.84 225.15 266.22 227.56 269.33Z" fill="black"/>
<path d="M227.17 173.88C229.73 176.46 229.52 180.09 228.92 182.98C228.48 185.13 227.97 186.88 227.34 188.29C225.25 193.05 221.8 194.01 214.54 193.71C208.07 193.44 203.4 192.02 202.1 183.09C201.77 180.87 201.45 178.18 202.02 175.94C202.27 174.93 202.72 174.01 203.42 173.27C205.45 171.09 210.57 170.6 216.01 170.62C221.87 170.64 225.28 171.97 227.17 173.88ZM217.65 181.04C217.65 179.06 216.06 177.46 214.07 177.46C212.1 177.46 210.49 179.05 210.49 181.04C210.49 183.01 212.09 184.62 214.07 184.62C216.06 184.62 217.65 183.01 217.65 181.04Z" fill="white"/>
<path d="M158.63 217.5C156.98 215.01 155.5 212.03 154.49 208.57L153.43 208.65C147.77 209.59 141.82 202.53 140.79 195.36C139.92 189.24 142.86 185.56 145.9 185.38C146.69 185.31 147.49 185.5 148.22 185.94C148.34 186.02 148.47 186.09 148.58 186.18C151.8 188.55 151.8 195.37 151.8 195.37C152.27 190.6 153.47 187.67 153.77 185.9L154.37 186.01L164.75 180.35L165.01 180.33C165.07 181.5 165.3 182.65 165.6 183.7C168.04 192.15 171.82 194.98 181.14 194.54C187.87 194.22 192.92 192.53 194.06 183.21C194.36 180.78 194.64 177.82 193.84 175.43C195.36 174.43 200.41 174.13 202.01 175.93C201.43 178.18 201.76 180.87 202.09 183.08C203.39 192.01 208.05 193.42 214.53 193.7C221.79 194 225.23 193.04 227.33 188.28L227.76 188.46C227.77 188.65 227.79 188.84 227.81 189.04C228.09 193.36 228.33 200.33 227.2 206.55C226.76 209 226.1 211.34 225.14 213.37C221.48 221.16 218.17 225.63 213.45 229.48C212.36 230.37 211.2 231.23 209.95 232.08C205.66 235 199.49 239.78 186.85 235.38C182.76 233.96 178.89 232.34 175.46 230.71C184.51 240.48 201.71 249.15 212.9 250.13H212.99C213.06 251.72 213.14 253.34 213.25 255.03C213.43 257.78 216.55 259.97 216.55 259.97C216.55 262.73 214.9 272.62 198.94 269.88C166.71 264.32 156.03 244.02 155.48 241.82C155.12 240.4 155.45 239.44 156.11 238.89C156.14 238.87 156.17 238.85 156.19 238.83C156.55 238.56 156.99 238.4 157.48 238.34H157.49C158.06 236.09 158.46 233.06 158.69 229.88C159.03 225.5 159.01 220.81 158.63 217.5Z" fill="white"/>
<path d="M221.5 134C221.5 134 232.5 146.11 234.15 160.41C229.86 145.43 216.64 133.17 216.64 133.17L218.53 132.23C206.27 121.84 183.63 121.84 183.63 121.84L184 119.75C173.25 121.84 163.81 132.22 163.81 132.22C162.87 130.33 156.26 128.45 153.84 128.11C153.84 128.11 160.12 127.74 162.86 129.39C171.36 119.95 184.1 116.55 192.35 116L187.94 119.85C187.94 119.85 212.7 119.7 224.25 134.55L221.5 134Z" fill="white"/>
<path d="M196.2 148.84C196.11 148.58 194.47 144.39 191.8 142.25C191.8 142.25 203.35 143.34 209.96 149.95C209.96 149.95 209.41 146.65 207.76 143.9C207.76 143.9 219.31 148.84 223.71 156.55C226.04 160.63 226.98 167.61 227.35 173.7L227.17 173.88C225.28 171.97 221.88 170.64 216.02 170.61C210.58 170.59 205.46 171.08 203.43 173.26C202.73 174.01 202.29 174.92 202.03 175.93C200.43 174.13 195.38 174.43 193.86 175.43C193.56 174.51 193.09 173.68 192.41 173C190.2 170.78 184.74 170.38 178.97 170.53C169.71 170.78 166.23 173.91 165.31 177.48L153.86 183.37C153.88 180.75 153.97 176.53 154.4 175.26C154.95 173.61 156.05 171.96 157.7 167C159.35 162.05 161.55 153.25 163.2 151.04C163.2 151.04 163.02 158.19 164.48 161.22C164.48 161.22 166.5 147.19 169.79 143.89C169.79 143.9 184.09 143.9 196.2 148.84Z" fill="white"/>
<path d="M222.5 271.93C223.23 275.05 223.69 278.84 223.58 283.37C223.16 300.14 219.05 323.8 220.29 337H169.26C165.96 315.54 166.51 305.09 165.96 290.16C165.44 275.89 162.15 263.99 157.78 255C157.58 254.58 157.37 254.16 157.17 253.75C156.65 252.75 156.06 251.88 155.37 251.14L155.36 251.13C151.14 246.26 152.21 241.35 156.15 238.91C155.49 239.46 155.16 240.42 155.52 241.84C156.07 244.04 166.75 264.34 198.98 269.9C214.94 272.65 216.59 262.75 216.59 259.99C216.6 260 216.6 260 216.61 260.01C216.89 260.28 220.6 263.86 222.5 271.93Z" fill="black"/>
<path d="M214.08 184.621C216.057 184.621 217.66 183.018 217.66 181.041C217.66 179.064 216.057 177.461 214.08 177.461C212.103 177.461 210.5 179.064 210.5 181.041C210.5 183.018 212.103 184.621 214.08 184.621Z" fill="black"/>
<path d="M213.46 229.49L213.81 229.91C213.2 235.65 212.93 240.24 212.9 244.61C212.89 246.47 212.93 248.29 212.99 250.14H212.9C201.72 249.16 184.51 240.49 175.46 230.72C178.89 232.35 182.76 233.97 186.85 235.39C199.5 239.79 205.66 235 209.95 232.09C211.21 231.23 212.37 230.37 213.46 229.49Z" fill="black"/>
<path d="M165.3 177.48C166.22 173.91 169.71 170.78 178.96 170.53C184.73 170.38 190.19 170.78 192.4 173C193.08 173.68 193.55 174.51 193.85 175.43C194.64 177.82 194.37 180.78 194.07 183.21C192.93 192.53 187.88 194.22 181.15 194.54C171.83 194.97 168.05 192.14 165.61 183.7C165.31 182.65 165.07 181.5 165.02 180.33C164.97 179.38 165.04 178.42 165.3 177.48ZM182.99 181.04C182.99 179.06 181.4 177.46 179.42 177.46C177.44 177.46 175.84 179.05 175.84 181.04C175.84 183.01 177.43 184.62 179.42 184.62C181.4 184.62 182.99 183.01 182.99 181.04Z" fill="white"/>
<path d="M179.43 177.461C181.4 177.461 183 179.051 183 181.041C183 183.011 181.41 184.621 179.43 184.621C177.45 184.621 175.85 183.021 175.85 181.041C175.85 179.061 177.44 177.461 179.43 177.461Z" fill="black"/>
<path d="M98.08 301.6C100.22 318.78 100.63 337 100.63 337H60C60 337 62.2 324.89 66.61 308.94C71.7 290.49 80.47 275.88 94.43 266.58C105.98 258.88 118.08 252.27 123.85 249.4C124.08 249.45 124.3 249.48 124.54 249.52C129.32 252.92 137.53 251.12 143.05 251.12C149.66 251.12 154.54 251.32 157.76 254.99C162.13 263.98 165.42 275.88 165.94 290.15C166.5 305.09 165.94 315.54 169.24 336.99H109.88C109.07 327.56 102.47 312.46 98.08 301.6ZM162.64 301.24C162.64 299.72 161.66 298.48 160.44 298.48C159.23 298.48 158.24 299.72 158.24 301.24C158.24 302.76 159.23 303.99 160.44 303.99C161.66 303.99 162.64 302.76 162.64 301.24ZM158.24 262.73C158.24 261.21 157.26 259.97 156.04 259.97C154.82 259.97 153.84 261.21 153.84 262.73C153.84 264.25 154.82 265.48 156.04 265.48C157.26 265.48 158.24 264.25 158.24 262.73Z" fill="white"/>
<path d="M160.44 298.49C161.66 298.49 162.64 299.73 162.64 301.25C162.64 302.77 161.66 304 160.44 304C159.23 304 158.24 302.77 158.24 301.25C158.24 299.73 159.23 298.49 160.44 298.49Z" fill="black"/>
<path d="M157.15 253.749C157.36 254.159 157.57 254.569 157.76 254.999C154.54 251.329 149.65 251.129 143.05 251.129C137.53 251.129 129.33 252.919 124.54 249.529C127.54 250.039 131.24 250.129 135.14 248.979C143.24 246.599 150.93 246.279 155.33 251.129L155.34 251.139C156.03 251.879 156.63 252.749 157.15 253.749Z" fill="black"/>
<path d="M156.04 259.98C157.26 259.98 158.24 261.22 158.24 262.74C158.24 264.26 157.26 265.49 156.04 265.49C154.82 265.49 153.84 264.26 153.84 262.74C153.84 261.21 154.82 259.98 156.04 259.98Z" fill="black"/>
<path d="M124.54 249.521C124.3 249.481 124.08 249.441 123.85 249.401C123.03 249.241 122.27 249.051 121.59 248.861C119.08 248.151 120.11 246.841 121.52 246.431C129.01 244.251 138.61 239.141 144.49 235.231C151.09 230.831 151.64 229.181 158.71 229.911C158.48 233.091 158.08 236.121 157.51 238.371H157.5C157.01 238.431 156.57 238.591 156.21 238.861C156.18 238.881 156.15 238.901 156.13 238.921C152.19 241.361 151.12 246.271 155.34 251.141C150.93 246.291 143.24 246.611 135.15 248.991C131.24 250.131 127.54 250.031 124.54 249.521Z" fill="white"/>
<path d="M153.85 183.369C153.84 184.139 153.84 184.789 153.84 185.159C153.84 185.379 153.81 185.619 153.76 185.899C153.46 187.669 152.26 190.609 151.79 195.369C151.79 195.369 151.79 188.549 148.57 186.179L148.7 186.009L153.85 183.369Z" fill="black"/>
<path d="M109.89 337H100.63C100.63 337 100.22 318.79 98.0801 301.6C102.47 312.46 109.07 327.56 109.89 337Z" fill="black"/>
<path d="M162.86 129.39C160.11 127.74 153.84 128.11 153.84 128.11C153.84 128.11 158.8 129.96 159.89 132.51C156.04 133.06 146.14 139.66 141.19 145.71C141.19 145.71 143.39 145.16 145.04 145.16C145.04 145.16 140.64 153.26 138.43 160.96C138.43 160.96 139.53 160.96 140.08 163.16C140.64 165.36 143.15 174.14 143.99 177.52C144.93 181.29 145.88 185.07 145.88 185.07" stroke="black" stroke-width="2" stroke-miterlimit="10" stroke-linecap="round" stroke-linejoin="round"/>
<path d="M162.86 129.39C171.36 119.95 184.1 116.55 192.35 116L187.94 119.85C187.94 119.85 212.7 119.7 224.25 134.55L221.5 134C221.5 134 232.5 146.11 234.15 160.41C234.15 160.41 231.95 158.2 230.85 157.65C230.85 157.65 231.41 169.76 230.85 175.26C230.41 179.77 229.9 186.72 229.76 188.46" stroke="black" stroke-width="2" stroke-miterlimit="10" stroke-linecap="round" stroke-linejoin="round"/>
<path d="M196.2 148.85C184.08 143.91 169.79 143.91 169.79 143.91C166.5 147.2 164.48 161.24 164.48 161.24C163.02 158.21 163.2 151.06 163.2 151.06C161.55 153.27 159.35 162.06 157.7 167.02C156.05 171.97 154.94 173.63 154.4 175.28C153.98 176.54 153.88 180.76 153.86 183.39C153.85 184.16 153.85 184.81 153.85 185.18C153.85 185.4 153.82 185.64 153.77 185.92C153.47 187.69 152.27 190.63 151.8 195.39C151.8 195.39 151.8 188.57 148.58 186.2C148.47 186.12 148.34 186.04 148.22 185.96C147.48 185.53 146.69 185.34 145.9 185.4C142.86 185.58 139.93 189.27 140.79 195.38C141.82 202.55 147.76 209.61 153.43 208.67" stroke="black" stroke-width="2" stroke-miterlimit="10" stroke-linecap="round" stroke-linejoin="round"/>
<path d="M227.35 173.7C226.98 167.61 226.04 160.63 223.71 156.55C219.31 148.85 207.76 143.9 207.76 143.9C209.41 146.65 209.96 149.95 209.96 149.95C203.35 143.34 191.8 142.25 191.8 142.25C194.47 144.38 196.1 148.57 196.2 148.84" stroke="black" stroke-width="2" stroke-miterlimit="10" stroke-linecap="round" stroke-linejoin="round"/>
<path d="M175.46 230.711C178.89 232.341 182.76 233.961 186.85 235.381C199.5 239.781 205.66 234.991 209.95 232.081C211.21 231.231 212.37 230.371 213.45 229.481C218.17 225.631 221.48 221.161 225.14 213.371C226.09 211.341 226.75 209.001 227.2 206.551C228.33 200.321 228.1 193.361 227.81 189.041C227.79 188.841 227.77 188.651 227.76 188.461" stroke="black" stroke-width="2" stroke-miterlimit="10" stroke-linecap="round" stroke-linejoin="round"/>
<path d="M171.23 228.561C172.53 229.271 173.94 229.981 175.44 230.701" stroke="black" stroke-width="2" stroke-miterlimit="10" stroke-linecap="round" stroke-linejoin="round"/>
<path d="M153.29 202.211C153.5 204.471 153.92 206.601 154.49 208.571C155.5 212.021 156.98 215.011 158.63 217.501C161.05 221.181 163.81 223.801 165.94 225.321" stroke="black" stroke-width="2" stroke-miterlimit="10" stroke-linecap="round" stroke-linejoin="round"/>
<path d="M146.29 188.779C144.64 189.329 142.99 193.179 144.64 196.479" stroke="black" stroke-width="2" stroke-miterlimit="10" stroke-linecap="round" stroke-linejoin="round"/>
<path d="M158.63 217.5C159.02 220.8 159.04 225.49 158.71 229.9C158.48 233.08 158.08 236.11 157.51 238.36C157.39 238.82 157.27 239.24 157.14 239.62" stroke="black" stroke-width="2" stroke-miterlimit="10" stroke-linecap="round" stroke-linejoin="round"/>
<path d="M156.21 238.849C156.57 238.579 157.01 238.419 157.5 238.359" stroke="black" stroke-width="2" stroke-miterlimit="10" stroke-linecap="round" stroke-linejoin="round"/>
<path d="M213.8 229.9C213.19 235.64 212.92 240.23 212.89 244.6C212.88 246.46 212.92 248.28 212.98 250.13C213.05 251.72 213.13 253.34 213.24 255.03C213.42 257.78 216.54 259.97 216.54 259.97C216.54 262.73 214.89 272.62 198.93 269.88C166.7 264.32 156.02 244.02 155.47 241.82C155.11 240.4 155.44 239.44 156.1 238.89" stroke="black" stroke-width="2" stroke-miterlimit="10" stroke-linecap="round" stroke-linejoin="round"/>
<path d="M155.34 251.141C156.03 251.891 156.62 252.751 157.14 253.751C157.35 254.161 157.56 254.571 157.75 255.001C162.12 263.991 165.41 275.891 165.93 290.161C166.49 305.101 165.93 315.551 169.23 337.001" stroke="black" stroke-width="2" stroke-miterlimit="10" stroke-linecap="round" stroke-linejoin="round"/>
<path d="M158.71 229.899C151.64 229.169 151.09 230.819 144.49 235.219C138.61 239.139 129.01 244.239 121.52 246.419C120.1 246.839 119.08 248.149 121.59 248.849C122.28 249.039 123.03 249.229 123.85 249.389C124.08 249.439 124.3 249.469 124.54 249.509C127.54 250.019 131.24 250.109 135.14 248.959C143.24 246.579 150.93 246.259 155.33 251.109" stroke="black" stroke-width="2" stroke-miterlimit="10" stroke-linecap="round" stroke-linejoin="round"/>
<path d="M156.21 238.85C156.18 238.87 156.15 238.89 156.13 238.91C152.19 241.35 151.12 246.26 155.34 251.13L155.35 251.14" stroke="black" stroke-width="2" stroke-miterlimit="10" stroke-linecap="round" stroke-linejoin="round"/>
<path d="M212.9 244.6C218.76 247.33 228.11 252.83 236.36 261.08C242.2 266.91 246.27 268.23 247.36 269.33C248.46 270.43 247.36 271.54 245.71 273.19C244.07 274.83 242.47 281.43 243.51 288.04C245.16 298.49 238.78 324.34 234.55 337" stroke="black" stroke-width="2" stroke-miterlimit="10" stroke-linecap="round" stroke-linejoin="round"/>
<path d="M123.85 249.4C118.07 252.28 105.98 258.88 94.43 266.58C80.47 275.88 71.7 290.49 66.61 308.94C62.2 324.89 60 337 60 337" stroke="black" stroke-width="2" stroke-miterlimit="10" stroke-linecap="round" stroke-linejoin="round"/>
<path d="M222.5 271.939C223.23 275.049 223.69 278.839 223.58 283.369C223.16 300.139 219.05 323.799 220.29 336.999" stroke="black" stroke-width="2" stroke-miterlimit="10" stroke-linecap="round" stroke-linejoin="round"/>
<path d="M216.56 259.98C216.57 259.99 216.57 259.99 216.58 260C216.89 260.28 220.6 263.86 222.5 271.94" stroke="black" stroke-width="2" stroke-miterlimit="10" stroke-linecap="round" stroke-linejoin="round"/>
<path d="M232.69 277.54C232.61 277.33 231.19 274.01 227.57 269.33C225.15 266.23 221.52 263.84 216.59 260" stroke="black" stroke-width="2" stroke-miterlimit="10" stroke-linecap="round" stroke-linejoin="round"/>
<path d="M249.38 276.24C256.11 282.13 267.46 293.77 271.02 307.3C276.05 326.4 277.99 337.01 277.99 337.01" stroke="black" stroke-width="2" stroke-miterlimit="10" stroke-linecap="round" stroke-linejoin="round"/>
<path d="M245.71 273.189C246.62 273.889 247.88 274.919 249.38 276.229" stroke="black" stroke-width="2" stroke-miterlimit="10" stroke-linecap="round" stroke-linejoin="round"/>
<path d="M95.52 286.391C96.57 290.971 97.41 296.231 98.08 301.601C100.22 318.781 100.63 337.001 100.63 337.001" stroke="black" stroke-width="2" stroke-miterlimit="10" stroke-linecap="round" stroke-linejoin="round"/>
<path d="M228.24 189.009C228.52 188.679 229.08 188.559 229.68 188.729C231.12 189.139 232.86 191.199 231.95 196.169C230.85 202.219 227.55 206.629 227.55 206.629" stroke="black" stroke-width="2" stroke-miterlimit="10" stroke-linecap="round" stroke-linejoin="round"/>
<path d="M189.76 168.55C184.1 166.66 175.85 165.91 171.44 167" stroke="black" stroke-width="3" stroke-miterlimit="10" stroke-linecap="round" stroke-linejoin="round"/>
<path d="M204.86 169.499C208.63 167.609 215.24 165.729 219.36 166.559" stroke="black" stroke-width="3" stroke-miterlimit="10" stroke-linecap="round" stroke-linejoin="round"/>
<path d="M193.85 175.43C194.64 177.82 194.37 180.78 194.07 183.21C192.93 192.53 187.88 194.22 181.15 194.54C171.83 194.97 168.05 192.14 165.61 183.7C165.31 182.65 165.07 181.5 165.02 180.33C164.97 179.38 165.05 178.41 165.3 177.48C166.22 173.91 169.71 170.78 178.96 170.53C184.73 170.38 190.19 170.78 192.4 173C193.08 173.69 193.55 174.52 193.85 175.43Z" stroke="black" stroke-width="2" stroke-miterlimit="10" stroke-linecap="round" stroke-linejoin="round"/>
<path d="M227.34 188.29C227.96 186.87 228.47 185.13 228.92 182.98C229.52 180.09 229.73 176.46 227.17 173.88C225.28 171.97 221.88 170.64 216.02 170.61C210.58 170.59 205.46 171.08 203.43 173.26C202.73 174.01 202.29 174.92 202.03 175.93C201.45 178.18 201.78 180.87 202.11 183.08C203.41 192.01 208.07 193.42 214.55 193.7C221.8 194 225.24 193.04 227.34 188.29Z" stroke="black" stroke-width="2" stroke-miterlimit="10" stroke-linecap="round" stroke-linejoin="round"/>
<path d="M193.85 175.43C195.37 174.43 200.42 174.13 202.02 175.93" stroke="black" stroke-width="2" stroke-miterlimit="10" stroke-linecap="round" stroke-linejoin="round"/>
<path d="M165.4 177.42L165.3 177.48L153.85 183.37L148.71 186.01" stroke="black" stroke-width="2" stroke-miterlimit="10" stroke-linecap="round" stroke-linejoin="round"/>
<path d="M197.94 178.311C198.72 185.071 202.5 189.271 202.5 192.621C202.5 196.471 200.06 198.911 195.65 198.911" stroke="black" stroke-width="2" stroke-miterlimit="10" stroke-linecap="round" stroke-linejoin="round"/>
<path d="M183.99 208.41C191.62 211.57 201.57 212.01 207.75 210.48" stroke="black" stroke-width="2" stroke-miterlimit="10" stroke-linecap="round" stroke-linejoin="round"/>
<path d="M175.44 230.699L175.46 230.709" stroke="black" stroke-width="2" stroke-miterlimit="10" stroke-linecap="round" stroke-linejoin="round"/>
<path d="M232.69 277.539C232.7 277.549 232.7 277.549 232.69 277.539Z" stroke="black" stroke-width="2" stroke-miterlimit="10" stroke-linecap="round" stroke-linejoin="round"/>
<path d="M222.5 271.93V271.94" stroke="black" stroke-width="2" stroke-miterlimit="10" stroke-linecap="round" stroke-linejoin="round"/>
<path d="M249.38 276.23V276.24" stroke="black" stroke-width="2" stroke-miterlimit="10" stroke-linecap="round" stroke-linejoin="round"/>
</g>
</svg>
